<svg xmlns="http://www.w3.org/2000/svg" width="325.788" height="200.003" viewBox="0 0 325.788 200.003">
  <g id="Group_18" data-name="Group 18" transform="translate(-194 -344.997)">
    <text id="FLYING_" data-name="FLYING " transform="translate(194 517)" font-size="81" font-family="Poppins-Regular, Poppins"><tspan x="0" y="0">FLYING </tspan></text>
    <g id="Group_17" data-name="Group 17" transform="translate(69 40)">
      <path id="Path_27" data-name="Path 27" d="M0,5s27.36,6.005,46.61,4.755S77,0,77,0" transform="translate(351.5 468.5)" fill="none" stroke="#000" stroke-width="2"/>
      <path id="Path_28" data-name="Path 28" d="M14,0s10.033,26.033,6.533,42.283S0,65,0,65" transform="translate(428.5 403.5)" fill="none" stroke="#000" stroke-width="2"/>
      <path id="Path_29" data-name="Path 29" d="M34.5,17.306S27.288,4.5,18.663.231,3.395-6.833,3.395-6.833" transform="translate(408 386.194)" fill="none" stroke="#000" stroke-width="2"/>
    </g>
    <g id="pan" transform="matrix(0.407, -0.914, 0.914, 0.407, 275.871, 508.241)">
      <g id="Group_14" data-name="Group 14" transform="translate(118.939)">
        <path id="Path_30" data-name="Path 30" d="M259.451,60.581a46.548,46.548,0,0,1,5.511.358l3.212-55.864A5.074,5.074,0,0,0,263.1,0h-7.612a5.074,5.074,0,0,0-5.075,5.075L252.8,61.114A46.415,46.415,0,0,1,259.451,60.581Zm.477-54.872a3.806,3.806,0,1,1-3.806,3.806A3.808,3.808,0,0,1,259.928,5.709Z" transform="translate(-215.526)"/>
        <path id="Path_31" data-name="Path 31" d="M192.433,344.626a33.246,33.246,0,1,0-33.246-33.246A33.282,33.282,0,0,0,192.433,344.626Z" transform="translate(-148.507 -204.331)"/>
        <path id="Path_32" data-name="Path 32" d="M162.865,325.726A43.9,43.9,0,1,0,118.939,281.8,43.931,43.931,0,0,0,162.865,325.726ZM156.62,246.6a35.766,35.766,0,1,1-29.536,35.2A35.705,35.705,0,0,1,156.62,246.6Z" transform="translate(-118.939 -174.748)"/>
      </g>
    </g>
    <text id="THE" transform="translate(237 449)" font-size="24" font-family="Poppins-Regular, Poppins"><tspan x="0" y="0">THE</tspan></text>
  </g>
</svg>
